<svg xmlns="http://www.w3.org/2000/svg" viewBox="0 0 112.197 112.197"><circle cx="56.099" cy="56.098" r="56.098" fill="#55acee"/><path d="M90.461 40.316a26.753 26.753 0 01-7.702 2.109 13.445 13.445 0 005.897-7.417 26.843 26.843 0 01-8.515 3.253 13.396 13.396 0 00-9.79-4.233c-7.404 0-13.409 6.005-13.409 13.409 0 1.051.119 2.074.349 3.056-11.144-.559-21.025-5.897-27.639-14.012a13.35 13.35 0 00-1.816 6.742c0 4.651 2.369 8.757 5.965 11.161a13.314 13.314 0 01-6.073-1.679l-.001.17a13.42 13.42 0 0010.757 13.147 13.36 13.36 0 01-3.532.471c-.866 0-1.705-.083-2.523-.239 1.706 5.326 6.657 9.203 12.526 9.312a26.904 26.904 0 01-16.655 5.74 27 27 0 01-3.197-.188 37.93 37.93 0 0020.553 6.025c24.664 0 38.152-20.432 38.152-38.153a38.35 38.35 0 00-.039-1.734 27.19 27.19 0 006.692-6.94z" fill="#f1f2f2"/></svg>